<svg width="225" height="56" viewBox="0 0 225 56" fill="none" xmlns="http://www.w3.org/2000/svg">
<path d="M188.487 0V41.9391H182.562V0H188.487Z" fill="white"/>
<path d="M132.369 42.6791C129.818 42.6791 127.431 42.0624 125.21 40.829C123.029 39.5955 121.322 37.8277 120.087 35.5253L124.346 32.2567C125.251 33.9424 126.444 35.2375 127.926 36.142C129.448 37.0465 130.99 37.4988 132.554 37.4988C134.282 37.4988 135.681 37.0671 136.751 36.2037C137.862 35.2992 138.417 34.2097 138.417 32.9351C138.417 31.1672 137.409 29.7693 135.393 28.7415C134.858 28.4537 133.48 27.837 131.258 26.8914C129.201 26.028 127.843 25.4113 127.185 25.0412C123.811 23.1911 122.124 20.5187 122.124 17.024C122.124 14.3516 123.111 12.152 125.086 10.4252C127.02 8.65737 129.633 7.77341 132.925 7.77341C135.064 7.77341 137.08 8.22565 138.973 9.13019C140.865 10.0347 142.347 11.3298 143.416 13.0154L139.652 16.5923C137.841 14.0433 135.475 12.7687 132.554 12.7687C131.114 12.7687 129.962 13.1593 129.098 13.9405C128.234 14.6805 127.802 15.6261 127.802 16.7774C127.802 18.5041 128.728 19.7992 130.579 20.6626L134.22 22.2661C136.196 23.0472 137.677 23.7256 138.664 24.3012C142.408 26.1924 144.28 28.9676 144.28 32.6268C144.28 35.4636 143.169 37.8482 140.947 39.7806C138.685 41.7129 135.825 42.6791 132.369 42.6791Z" fill="white"/>
<path d="M101.026 41.9391H106.951V24.4245C106.951 20.971 107.773 18.3191 109.419 16.469C111.106 14.6189 113.307 13.6938 116.023 13.6938C117.134 13.6938 118.286 13.8788 119.479 14.2488L120.034 8.51345C118.635 8.18454 117.339 8.02009 116.146 8.02009C111.744 8.02009 108.576 9.93188 106.642 13.7555V8.88347H101.026V41.9391Z" fill="white"/>
<path d="M71.5923 38.9172C74.1844 41.4662 77.641 42.7408 81.9611 42.7408C86.3632 42.7408 89.8193 41.4868 92.3291 38.9788C94.8802 36.4709 96.1556 33.0173 96.1556 28.6181V8.88347H90.2925V28.4332C90.2925 31.1466 89.5522 33.3051 88.0708 34.9086C86.5898 36.4709 84.5532 37.2521 81.9611 37.2521C79.369 37.2521 77.332 36.4709 75.851 34.9086C74.411 33.3051 73.6907 31.1466 73.6907 28.4332V8.88347H67.7663V28.6181C67.7663 32.9351 69.0416 36.3681 71.5923 38.9172Z" fill="white"/>
<path fill-rule="evenodd" clip-rule="evenodd" d="M179.26 27.8164C179.383 26.213 179.445 25.2057 179.445 24.7946C179.445 19.6553 177.943 15.585 174.94 12.5838C171.977 9.58244 168.151 8.08178 163.46 8.08178C158.523 8.08178 154.491 9.70578 151.364 12.9538C148.278 16.2429 146.735 20.3543 146.735 25.2879C146.735 27.5081 147.085 29.6254 147.784 31.64C148.484 33.6546 149.512 35.5047 150.87 37.1904C152.228 38.8761 154.059 40.2123 156.363 41.199C158.708 42.1857 161.383 42.6791 164.386 42.6791C167.019 42.6791 169.611 42.2474 172.162 41.384C174.714 40.4795 176.853 39.3694 178.581 38.0538L176.05 33.5518C174.528 34.6619 172.718 35.5664 170.62 36.2653C168.521 36.9231 166.485 37.2521 164.509 37.2521C161.177 37.2521 158.544 36.4092 156.61 34.7235C154.676 33.0379 153.442 30.7355 152.907 27.8164H179.26ZM173.335 22.6977H152.907C153.401 19.9431 154.614 17.7024 156.548 15.9756C158.482 14.2077 160.786 13.3238 163.46 13.3238C166.217 13.3238 168.501 14.1872 170.311 15.9139C172.162 17.5996 173.171 19.8609 173.335 22.6977Z" fill="white"/>
<path d="M218.458 8.88347L209.571 33.6751L199.326 8.88347H192.475L206.855 41.8157L205.621 44.7142C203.975 48.5791 201.795 50.5111 199.079 50.5111C197.886 50.5111 196.548 50.1825 195.067 49.5245L194.327 54.705C195.767 55.5683 197.536 56 199.635 56C202.268 56 204.489 55.1777 206.3 53.5332C208.151 51.9297 209.756 49.2982 211.114 45.6393L225 8.88347H218.458Z" fill="white"/>
<path d="M17.4658 42.6651C12.3228 42.6651 8.126 41.0411 4.87562 37.7931C1.6252 34.5451 0 30.4132 0 25.3973C0 20.3814 1.64577 16.2289 4.93731 12.9398C8.22887 9.69178 12.5079 8.06778 17.7744 8.06778C21.0248 8.06778 24.0078 8.84898 26.7233 10.4113C27.8087 11.0264 28.7793 11.7245 29.6351 12.5054C29.4221 12.7051 29.2128 12.9116 29.0073 13.1248C27.8033 14.3431 26.8224 15.6714 26.0644 17.1096C25.3096 16.327 24.4596 15.6566 23.514 15.0983C21.7448 14.0293 19.8316 13.4948 17.7744 13.4948C14.4005 13.4948 11.5821 14.6255 9.31922 16.8867C7.09739 19.1891 5.98653 22.026 5.98653 25.3973C5.98653 28.7275 7.07683 31.5438 9.25747 33.8462C11.397 36.1074 14.1331 37.2381 17.4658 37.2381C19.523 37.2381 21.4979 36.6831 23.3906 35.573C24.3914 34.9985 25.26 34.3413 25.9963 33.6016C26.7634 35.1095 27.767 36.5067 29.0073 37.7931C29.1506 37.9382 29.2957 38.0801 29.4424 38.2188C28.5609 39.0068 27.5723 39.7077 26.4764 40.3216C23.6786 41.8839 20.6751 42.6651 17.4658 42.6651Z" fill="white"/>
<path d="M57.992 23.3856C57.7715 22.0576 57.3402 20.8012 56.733 19.6522H53.9729V23.3856H57.992Z" fill="white"/>
<path d="M55.7945 32.7189C56.6078 31.6017 57.2392 30.3426 57.6445 28.9856H46.5284V32.7189H55.7945Z" fill="white"/>
<path d="M57.8836 28.0522C58.0651 27.2081 58.1605 26.3319 58.1605 25.4333C58.1605 25.0577 58.1437 24.686 58.1112 24.3189H50.2507V28.0522H57.8836Z" fill="white"/>
<path fill-rule="evenodd" clip-rule="evenodd" d="M47.1598 42.6338C42.1055 42.6338 37.9348 40.9647 34.6475 37.6264C31.4013 34.2469 29.7782 30.1049 29.7782 25.2006C29.7782 20.2962 31.4013 16.1954 34.6475 12.8983C37.8937 9.51888 42.0644 7.82913 47.1598 7.82913C52.1727 7.82913 56.3026 9.51888 59.5489 12.8983C62.8361 16.3191 64.48 20.4198 64.48 25.2006C64.48 30.0637 62.8361 34.2057 59.5489 37.6264C56.2617 40.9647 52.1318 42.6338 47.1598 42.6338ZM53.5477 15.361C51.6907 14.0077 49.5611 13.3311 47.1598 13.3311C43.9957 13.3311 41.3043 14.5057 39.0853 16.8548C36.8664 19.1628 35.757 21.9447 35.757 25.2006C35.757 28.4977 36.8664 31.3208 39.0853 33.6699C40.2052 34.8555 41.4455 35.742 42.8061 36.3292V33.6522H55.0435C53.8189 35.0325 52.29 36.1357 50.5629 36.8563C55.4911 35.4105 59.091 30.8436 59.091 25.4333C59.091 21.1917 56.8782 17.4683 53.5477 15.361Z" fill="white"/>
</svg>
